<?xml version="1.0" encoding="UTF-8" standalone="no"?>
<!-- Created with Inkscape (http://www.inkscape.org/) -->

<svg
   xmlns:dc="http://purl.org/dc/elements/1.1/"
   xmlns:cc="http://creativecommons.org/ns#"
   xmlns:rdf="http://www.w3.org/1999/02/22-rdf-syntax-ns#"
   xmlns:svg="http://www.w3.org/2000/svg"
   xmlns="http://www.w3.org/2000/svg"
   xmlns:sodipodi="http://sodipodi.sourceforge.net/DTD/sodipodi-0.dtd"
   xmlns:inkscape="http://www.inkscape.org/namespaces/inkscape"
   width="512"
   height="512"
   viewBox="0 0 135.46666 135.46666"
   version="1.1"
   id="svg8"
   inkscape:version="0.92.1 r15371"
   sodipodi:docname="ok.svg"
   inkscape:export-filename="D:\DOC\Fotojaba\icons\DelayedStartup\ani-icon-svg\ok.png"
   inkscape:export-xdpi="3"
   inkscape:export-ydpi="3">
  <defs
     id="defs2" />
  <sodipodi:namedview
     id="base"
     pagecolor="#ffffff"
     bordercolor="#666666"
     borderopacity="1.0"
     inkscape:pageopacity="0.0"
     inkscape:pageshadow="2"
     inkscape:zoom="0.7"
     inkscape:cx="202.57143"
     inkscape:cy="286.36673"
     inkscape:document-units="mm"
     inkscape:current-layer="g3808"
     showgrid="false"
     units="px"
     inkscape:window-width="1024"
     inkscape:window-height="720"
     inkscape:window-x="-4"
     inkscape:window-y="-4"
     inkscape:window-maximized="1" />
  <metadata
     id="metadata5">
    <rdf:RDF>
      <cc:Work
         rdf:about="">
        <dc:format>image/svg+xml</dc:format>
        <dc:type
           rdf:resource="http://purl.org/dc/dcmitype/StillImage" />
        <dc:title />
      </cc:Work>
    </rdf:RDF>
  </metadata>
  <g
     inkscape:label="Layer 1"
     inkscape:groupmode="layer"
     id="layer1"
     transform="translate(0,-161.53336)">
    <g
       id="g3808"
       transform="matrix(1.0027185,0,0,1.0426076,0.75192543,-9.100384)">
      <path
         transform="matrix(0.26458333,0,0,0.26458333,0,161.53336)"
         inkscape:connector-curvature="0"
         id="path3793"
         d="m 84.169939,255.50025 v -95.71429 h 41.071431 41.07143 v 95.71429 95.71429 H 125.24137 84.169939 Z"
         style="fill:#00ff00;stroke:#000000;stroke-width:2.69966269;stroke-opacity:1" />
      <path
         transform="matrix(0.26458333,0,0,0.26458333,0,161.53336)"
         inkscape:connector-curvature="0"
         id="path3795"
         d="m 167.74137,255.50025 v -95.71429 h 40.71428 40.71429 v 95.71429 95.71429 h -40.71429 -40.71428 z"
         style="fill:#00ff00;stroke:#000000;stroke-width:2.69966269;stroke-opacity:1" />
      <path
         transform="matrix(0.26458333,0,0,0.26458333,0,161.53336)"
         inkscape:connector-curvature="0"
         id="path3797"
         d="m 250.59851,255.50025 v -95.71429 h 44.64286 44.64286 v 95.71429 95.71429 h -44.64286 -44.64286 z"
         style="fill:#00ff00;stroke:#000000;stroke-width:2.69966269;stroke-opacity:1" />
      <path
         transform="matrix(0.26458333,0,0,0.26458333,0,161.53336)"
         inkscape:connector-curvature="0"
         id="path3799"
         d="m 342.74137,424.92882 c 0,-48.66666 -0.24271,-73.71428 -0.71429,-73.71428 -0.47263,0 -0.71428,-32.38095 -0.71428,-95.71429 0,-63.03384 0.24274,-95.71429 0.71095,-95.71429 0.46597,0 0.77362,-25.41212 0.89285,-73.749995 l 0.18191,-73.75 81.26989,121.606175 81.26988,121.60618 -80.80145,120.89382 c -44.44079,66.4916 -81.0926,121.19918 -81.44845,121.5724 -0.3867,0.40555 -0.64701,-28.97949 -0.64701,-73.03572 z"
         style="fill:#00ff00;stroke:#000000;stroke-width:2.69966269;stroke-opacity:1" />
      <path
         transform="matrix(0.26458333,0,0,0.26458333,0,161.53336)"
         inkscape:connector-curvature="0"
         id="path3801"
         d="M 5.5985106,255.50025 V 159.78596 H 44.169939 82.741368 v 95.71429 95.71429 H 44.169939 5.5985106 Z"
         style="fill:#00ff00;stroke:#000000;stroke-width:2.69966269;stroke-opacity:1" />
    </g>
  </g>
</svg>
